<svg xmlns="http://www.w3.org/2000/svg" viewBox="0 0 100 100"><svg xmlns="http://www.w3.org/2000/svg" xmlns:xlink="http://www.w3.org/1999/xlink" id="Layer_1" width="80" height="40.271" x="10" y="29.864" data-name="Layer 1" preserveAspectRatio="xMidYMid meet" viewBox="0 0 185.68 93.47"><defs><linearGradient id="linear-gradient" x1="41.74" x2="41.74" y1="65.15" y2="24.41" gradientUnits="userSpaceOnUse"><stop offset=".28" stop-color="#6faad1"/><stop offset="1" stop-color="#95c76b"/></linearGradient><linearGradient xlink:href="#linear-gradient" id="linear-gradient-2" x1="74.39" x2="74.39" y1="65.15" y2="24.41"/><linearGradient xlink:href="#linear-gradient" id="linear-gradient-3" x1="107.04" x2="107.04" y1="65.15" y2="24.41"/><linearGradient xlink:href="#linear-gradient" id="linear-gradient-4" x1="139.7" x2="139.7" y1="65.15" y2="24.41"/><linearGradient xlink:href="#linear-gradient" id="linear-gradient-5" x1="286.65" x2="286.65" y1="376.57" y2="330.78"/><linearGradient xlink:href="#linear-gradient" id="linear-gradient-6" x1="303.06" x2="303.06" y1="374.37" y2="330.75"/><linearGradient xlink:href="#linear-gradient" id="linear-gradient-7" x1="270.22" x2="270.22" y1="374.37" y2="330.75"/><linearGradient xlink:href="#linear-gradient" id="linear-gradient-8" x1="319.41" x2="319.41" y1="372.52" y2="331.78"/><linearGradient xlink:href="#linear-gradient" id="linear-gradient-9" x1="286.56" x2="286.56" y1="372.52" y2="331.78"/><linearGradient xlink:href="#linear-gradient" id="linear-gradient-10" x1="253.99" x2="253.99" y1="372.52" y2="331.78"/><style>.cls-1{fill:#2c479c}</style></defs><title>Ambarella_color_cmyk</title><path d="m6.99 88.19-1.68 5.06H0l8.87-26.71h7.55l9.05 26.71h-5.2l-1.74-5.06Zm5.8-17.73h-.07L8.16 84.31h9.23Zm19.16 4.09v2.71h.15c1-2.39 3.52-2.92 5.87-2.92s5.06.6 5.56 3.31h.14c.86-2.6 3.42-3.31 5.91-3.31 4.85 0 6.45 1.67 6.45 6.27v12.64h-4.49V81.03c-.1-2.35-.67-3.27-3.13-3.27-3.64 0-4.35 1.64-4.35 4.95v10.54h-4.49V81.03c-.1-2.35-.67-3.27-3.13-3.27-3.63 0-4.34 1.64-4.34 4.95v10.54h-4.49v-18.7Zm28.39-8.01h4.49v10.51h.18c1-2.28 3.34-2.71 5.62-2.71 6.41 0 7.16 3.52 7.16 9 0 5.73-.21 10.12-7.16 10.12-2.63 0-4.7-.57-5.84-3h-.14l.18 2.81h-4.49Zm4.49 16.81c0 4.45-.11 6.7 4.49 6.7 4.09 0 4-2.46 4-6.7 0-4.7-.89-5.59-4-5.59-3.89 0-4.49 1.6-4.49 5.59m29.03 7.55h-.11c-.89 2.49-3.63 2.57-5.81 2.57-4.24 0-7-.89-7-5.95 0-4.49 2.35-5.74 7-5.74 2.28 0 4.53 0 5.6 2.14h.14V81.5c0-3-.25-4.1-4-4.1-2 0-3.53.18-3.53 2.6h-4.49c0-5.45 3.74-5.66 8-5.66 6 0 8.47.93 8.47 7.19v11.72h-4.48Zm-8.41-3.38c0 2.63 1.07 2.88 4.1 2.88 2.38 0 4.13-.21 4.13-2.88s-1.93-2.67-4.13-2.67-4.1 0-4.1 2.67m21.23-12.97-.11 2.46h.18c.89-2.07 2.81-2.67 5-2.67 4 0 4.92 2.35 4.92 5.88v1.49h-4.2v-1c0-1.89-.18-3-2.28-3-2.67 0-3.46 1.53-3.39 3.95V93.2h-4.5V74.5ZM136.3 87.3c0 5.88-3.38 6.17-8.72 6.17-7.16 0-8.62-2.28-8.62-9.51 0-6.7 1.07-9.62 8.62-9.62s8.72 2.24 8.72 10.4h-12.85c0 4 .1 5.31 4.13 5.31 2.49 0 4.24 0 4.24-2.75Zm-4.48-5.41c0-3.85-.57-4.13-4.24-4.13-3.88 0-4.13.82-4.13 4.13Zm12.68 11.36h-4.49V66.54h4.49Zm8.97 0h-4.49V66.54h4.49Zm16.63-2.35h-.11c-.89 2.49-3.63 2.57-5.8 2.57-4.24 0-7-.89-7-5.95 0-4.49 2.35-5.74 7-5.74 2.28 0 4.52 0 5.59 2.14h.14V81.5c0-3-.25-4.1-4-4.1-2 0-3.52.18-3.52 2.6h-4.49c0-5.45 3.74-5.66 8-5.66 6 0 8.48.93 8.48 7.19v11.72h-4.49Zm-8.41-3.38c0 2.63 1.07 2.88 4.1 2.88 2.39 0 4.13-.21 4.13-2.88s-1.92-2.67-4.13-2.67-4.06 0-4.06 2.67Z" class="cls-1"/><path d="m27.92 55.45 13.82-11.84 13.81 11.84z" style="fill:url(#linear-gradient)"/><path d="m60.58 55.45 13.81-11.84 13.82 11.84z" style="fill:url(#linear-gradient-2)"/><path d="m93.23 55.45 13.82-11.84 13.81 11.84z" style="fill:url(#linear-gradient-3)"/><path d="m125.88 55.45 13.82-11.84 13.81 11.84z" style="fill:url(#linear-gradient-4)"/><path d="M293.48 312.63c1.42 2 3.32 5.74 3.32 7.71 0 6.47-4.63 10.44-10.27 10.44s-10-4-10-10.44c0-2 2-6.18 3.72-8.45 2-2.63 3.73-4.52 6.3-4.52s4.86 2.28 6.93 5.26" style="fill:url(#linear-gradient-5)" transform="translate(-195.9 -307.37)"/><path d="M303 323c2 0 5.91 3.65 7.39 5.54 1 1.3 4.59 5.67 4.59 6.93 0 4.11-7.93 10.85-12 10.85s-11.79-6.74-11.79-10.85c0-1.31 3.89-6.18 5.12-7.62 1.42-1.67 4.81-4.85 6.69-4.85" style="fill:url(#linear-gradient-6)" transform="translate(-195.9 -307.37)"/><path d="M270.13 323c1.94 0 5.9 3.65 7.38 5.54 1 1.3 4.59 5.67 4.59 6.93 0 4.11-7.92 10.85-12 10.85s-11.8-6.74-11.8-10.85c0-1.31 3.89-6.18 5.12-7.62 1.47-1.67 4.87-4.85 6.71-4.85" style="fill:url(#linear-gradient-7)" transform="translate(-195.9 -307.37)"/><path d="M319.36 337.88c1 0 6.55 4.79 7.29 5.67.51.6 5.6 5.48 5.6 6.07 0 1.92-10.86 11-12.89 11s-12.8-9.07-12.8-11c0-.61 5.61-6 6.23-6.71s5.65-5.03 6.57-5.03" style="fill:url(#linear-gradient-8)" transform="translate(-195.9 -307.37)"/><path d="M286.52 337.88c1 0 6.55 4.79 7.29 5.67.51.6 5.6 5.48 5.6 6.07 0 1.92-10.87 11-12.89 11s-12.81-9.07-12.81-11c0-.61 5.62-6 6.24-6.71s5.65-5.03 6.57-5.03" style="fill:url(#linear-gradient-9)" transform="translate(-195.9 -307.37)"/><path d="M253.94 337.88c1 0 6.55 4.79 7.29 5.67.51.6 5.61 5.48 5.61 6.07 0 1.92-10.87 11-12.9 11s-12.8-9.07-12.8-11c0-.61 5.61-6 6.23-6.71s5.63-5.03 6.57-5.03" style="fill:url(#linear-gradient-10)" transform="translate(-195.9 -307.37)"/><path d="M176.64 71.96v-4.75h-1.7v-1h4.54v1h-1.68v4.75Zm3.57 0v-5.72h1.73l1 3.9 1-3.9h1.74v5.72h-1.07v-4.5l-1.14 4.5h-1.11l-1.13-4.5v4.5Z" class="cls-1"/></svg></svg>