<svg xmlns="http://www.w3.org/2000/svg" viewBox="0 0 100 100"><svg xmlns="http://www.w3.org/2000/svg" width="80" height="28.445" x="10" y="35.777" fill="none" viewBox="0 0 100.004 35.558"><path fill="#0a6de6" d="M24.707 8.162V.785H0v34.427h7.415V22.918h14.822v-7.376H7.415v-7.38zM34.429.785h-7.411v34.427h7.41zm27.783 24.632a10.6 10.6 0 0 1-5.419 2.726 10.64 10.64 0 0 1-6.032-.683 10.6 10.6 0 0 1-4.665-3.867 10.51 10.51 0 0 1-.052-11.579 10.6 10.6 0 0 1 4.63-3.908 10.64 10.64 0 0 1 11.468 1.94A21.3 21.3 0 0 1 65.9 3.761 17.93 17.93 0 0 0 47.044 1.82a17.8 17.8 0 0 0-7.307 6.591 17.71 17.71 0 0 0 .094 18.867 17.83 17.83 0 0 0 7.372 6.519 17.93 17.93 0 0 0 18.835-2.129 21.5 21.5 0 0 1-3.826-6.25"/><path fill="#0a6de6" d="M82.105.019a17.9 17.9 0 0 0-9.919 2.995 17.8 17.8 0 0 0-6.575 7.975 17.7 17.7 0 0 0-1.016 10.268 17.74 17.74 0 0 0 4.888 9.098 17.9 17.9 0 0 0 9.142 4.862c3.463.685 7.053.333 10.315-1.013a17.84 17.84 0 0 0 8.012-6.546A17.71 17.71 0 0 0 94.729 5.22a17.9 17.9 0 0 0-5.792-3.851 17.9 17.9 0 0 0-6.832-1.35m0 28.318c-2.097 0-4.147-.617-5.891-1.777a10.56 10.56 0 0 1-3.907-4.734 10.5 10.5 0 0 1-.605-6.098 10.54 10.54 0 0 1 2.9-5.404 10.6 10.6 0 0 1 5.43-2.89 10.65 10.65 0 0 1 6.126.6 10.6 10.6 0 0 1 4.758 3.887A10.52 10.52 0 0 1 89.6 25.245a10.63 10.63 0 0 1-7.495 3.092M95.248 32.9a2.6 2.6 0 0 1 .328-1.273q.152-.274.369-.501.216-.223.483-.384a2.35 2.35 0 0 1 1.831-.244 2.33 2.33 0 0 1 1.045.628q.22.226.373.501.158.285.241.6a2.7 2.7 0 0 1 0 1.35 2.6 2.6 0 0 1-.241.599q-.151.278-.373.505a2.6 2.6 0 0 1-.48.388 2.324 2.324 0 0 1-2.88-.388 2.6 2.6 0 0 1-.696-1.782m.385 0c0 .279.054.556.16.815a2.1 2.1 0 0 0 .41.669 2 2 0 0 0 .635.444 1.96 1.96 0 0 0 1.548 0c.237-.107.451-.258.631-.444.178-.196.317-.423.41-.67a2.15 2.15 0 0 0 0-1.63 2.1 2.1 0 0 0-.41-.665 2 2 0 0 0-.63-.44 1.96 1.96 0 0 0-2.184.44c-.178.194-.317.42-.41.665a2.1 2.1 0 0 0-.16.815m1.504.252v1.126h-.476V31.43h.926q.227-.004.447.053.184.047.34.159c.094.068.168.16.217.265a.9.9 0 0 1 .074.375.65.65 0 0 1-.107.367.86.86 0 0 1-.32.26q.106.045.193.119.076.068.127.155a.8.8 0 0 1 .07.195q.02.11.02.22v.184a2 2 0 0 0 0 .237.7.7 0 0 0 .045.187v.053h-.483a.5.5 0 0 1-.029-.11v-.546a.5.5 0 0 0-.11-.355.53.53 0 0 0-.381-.114zm0-.428h.52a.8.8 0 0 0 .205-.028.7.7 0 0 0 .172-.078.34.34 0 0 0 .114-.126.3.3 0 0 0 .046-.176.6.6 0 0 0-.046-.232.3.3 0 0 0-.102-.139.4.4 0 0 0-.184-.073 1.4 1.4 0 0 0-.287-.025h-.45z"/></svg></svg>